<svg width="269" height="80" viewBox="0 0 269 80" fill="none" xmlns="http://www.w3.org/2000/svg">
<path d="M50.4089 7.08041L38.0522 28.5679C35.9839 28.0018 33.5574 27.7239 32.8733 27.1156C28.2222 22.0535 24.2309 15.1022 23.852 13.1338C23.4732 11.1654 24.0069 8.36051 27.2865 7.85876L50.4089 7.08041Z" fill="#FFB818"/>
<path d="M42.5071 37.9165L35.429 35.9317L40.0248 18.8785C42.9116 9.91188 45.0723 8.28376 50.52 7.01766L42.5071 37.9165Z" fill="#FBD300"/>
<path d="M14.8039 20.7509L30.3515 40.0556C29.0743 41.7781 27.9358 43.9389 27.1209 44.356C20.7172 46.856 12.7918 48.0564 10.82 47.6961C8.8482 47.3357 6.42745 45.8216 7.1485 42.5832L14.8039 20.7509Z" fill="#5C9630"/>
<path d="M40.6798 39.2976L36.2644 45.175L22.0366 34.7107C14.726 28.7702 13.9917 26.1664 14.7863 20.6302L40.6798 39.2976Z" fill="#78C239"/>
<path d="M15.9269 60.018L38.762 50.3765C40.0669 52.078 41.8315 53.7667 42.0085 54.6649C42.6517 61.5091 41.6271 69.4591 40.7386 71.2559C39.85 73.0527 37.7287 74.9639 34.8133 73.3803L15.9269 60.018Z" fill="#0374B0"/>
<path d="M40.8676 40.2338L45.3047 46.0948L31.3322 56.8977C23.6108 62.2935 20.9054 62.2836 15.801 59.9977L40.8676 40.2338Z" fill="#07A1E4"/>
<path d="M53.6851 70.3159L51.4725 45.6277C53.4911 44.9043 55.6378 43.7393 56.5471 43.8448C63.2611 45.321 70.5191 48.723 71.959 50.1175C73.3989 51.512 74.5716 54.1154 72.1738 56.4084L53.6851 70.3159Z" fill="#E57318"/>
<path d="M42.4586 40.5245L49.3942 38.0878L55.4175 54.6906C58.1994 63.6903 57.3644 66.2636 53.6297 70.4269L42.4586 40.5245Z" fill="#F9AA2B"/>
<path d="M74.9793 38.0149L50.9751 31.8347C50.9692 29.6904 50.59 27.2776 50.9939 26.4561C54.6327 20.6237 60.2681 14.9234 62.0642 14.0334C63.8603 13.1435 66.706 12.91 68.064 15.9371L74.9793 38.0149Z" fill="#B5201A"/>
<path d="M42.1122 38.6713L44.1919 31.2192L60.8389 31.149C70.2506 31.5405 72.3959 33.1888 75.0687 38.1018L42.1122 38.6713Z" fill="#F22921"/>
<ellipse cx="41.6791" cy="39.278" rx="6.32584" ry="6.15253" fill="white"/>
<path d="M96.4422 55.1022C93.6445 55.1022 91.2827 54.4841 89.3569 53.2479C87.431 51.9987 85.9736 50.2745 84.9846 48.0754C83.9957 45.8763 83.5012 43.3388 83.5012 40.463C83.5012 37.5873 83.9957 35.0498 84.9846 32.8507C85.9736 30.6516 87.431 28.9339 89.3569 27.6977C91.2827 26.4485 93.6445 25.8239 96.4422 25.8239C99.7083 25.8239 102.376 26.6632 104.445 28.3418C106.514 30.0075 107.932 32.2456 108.7 35.0563L105.772 35.8176C105.174 33.5924 104.1 31.8292 102.552 30.528C101.003 29.2267 98.9666 28.5761 96.4422 28.5761C94.2431 28.5761 92.4148 29.0771 90.9574 30.079C89.5 31.081 88.4004 32.4798 87.6587 34.2756C86.93 36.0583 86.5527 38.1208 86.5266 40.463C86.5136 42.8053 86.8715 44.8678 87.6002 46.6505C88.3419 48.4332 89.4479 49.8321 90.9184 50.8471C92.4018 51.849 94.2431 52.35 96.4422 52.35C98.9666 52.35 101.003 51.6994 102.552 50.3981C104.1 49.0839 105.174 47.3207 105.772 45.1085L108.7 45.8698C107.932 48.6805 106.514 50.9251 104.445 52.6038C102.376 54.2694 99.7083 55.1022 96.4422 55.1022ZM128.231 54.5166V43.7617C128.231 42.5906 128.121 41.5171 127.9 40.5411C127.678 39.5522 127.32 38.6933 126.826 37.9646C126.345 37.2229 125.713 36.6504 124.933 36.247C124.165 35.8436 123.228 35.6419 122.122 35.6419C121.107 35.6419 120.209 35.8176 119.428 36.1689C118.661 36.5202 118.01 37.0277 117.476 37.6914C116.956 38.342 116.559 39.1358 116.286 40.0727C116.013 41.0096 115.876 42.0766 115.876 43.2738L113.846 42.8248C113.846 40.6647 114.223 38.8495 114.978 37.3791C115.733 35.9086 116.774 34.7961 118.101 34.0413C119.428 33.2866 120.951 32.9093 122.668 32.9093C123.931 32.9093 125.03 33.1044 125.967 33.4948C126.917 33.8852 127.717 34.4122 128.368 35.0758C129.032 35.7395 129.565 36.5007 129.969 37.3595C130.372 38.2054 130.665 39.1097 130.847 40.0727C131.029 41.0226 131.12 41.9725 131.12 42.9224V54.5166H128.231ZM112.987 54.5166V26.4095H115.583V42.2783H115.876V54.5166H112.987ZM142.217 55.1022C140.629 55.1022 139.295 54.8159 138.215 54.2433C137.148 53.6708 136.348 52.9096 135.814 51.9596C135.281 51.0097 135.014 49.9752 135.014 48.8561C135.014 47.711 135.242 46.7351 135.697 45.9283C136.166 45.1085 136.797 44.4384 137.591 43.9179C138.397 43.3974 139.328 43.0005 140.382 42.7272C141.449 42.467 142.626 42.2393 143.915 42.0441C145.216 41.8359 146.485 41.6602 147.721 41.5171C148.97 41.3609 150.063 41.2113 151 41.0681L149.985 41.6927C150.024 39.6107 149.621 38.0687 148.775 37.0668C147.929 36.0648 146.459 35.5638 144.364 35.5638C142.919 35.5638 141.696 35.8891 140.694 36.5398C139.705 37.1904 139.009 38.2184 138.606 39.6237L135.814 38.8039C136.296 36.9171 137.265 35.4532 138.723 34.4122C140.18 33.3712 142.073 32.8507 144.403 32.8507C146.329 32.8507 147.962 33.215 149.302 33.9438C150.655 34.6594 151.612 35.7004 152.171 37.0668C152.431 37.6784 152.601 38.3615 152.679 39.1162C152.757 39.871 152.796 40.6387 152.796 41.4195V54.5166H150.239V49.227L150.981 49.5393C150.265 51.348 149.152 52.7274 147.643 53.6773C146.133 54.6272 144.325 55.1022 142.217 55.1022ZM142.548 52.6233C143.889 52.6233 145.06 52.3825 146.062 51.9011C147.064 51.4196 147.871 50.7625 148.482 49.9297C149.094 49.0839 149.491 48.1339 149.673 47.0799C149.829 46.4033 149.914 45.6616 149.927 44.8548C149.94 44.035 149.946 43.4234 149.946 43.02L151.039 43.5861C150.063 43.7162 149.003 43.8463 147.858 43.9764C146.725 44.1066 145.606 44.2562 144.5 44.4254C143.407 44.5945 142.418 44.7962 141.533 45.0304C140.935 45.1996 140.356 45.4403 139.796 45.7526C139.237 46.0519 138.775 46.4553 138.41 46.9628C138.059 47.4703 137.883 48.1014 137.883 48.8561C137.883 49.4677 138.033 50.0598 138.332 50.6324C138.645 51.2049 139.139 51.6799 139.816 52.0572C140.505 52.4346 141.416 52.6233 142.548 52.6233ZM167.344 55.1022C165.405 55.1022 163.765 54.6142 162.425 53.6383C161.085 52.6493 160.07 51.3155 159.38 49.6369C158.69 47.9453 158.346 46.0519 158.346 43.9569C158.346 41.8229 158.69 39.923 159.38 38.2574C160.083 36.5788 161.111 35.258 162.464 34.2951C163.817 33.3322 165.483 32.8507 167.461 32.8507C169.387 32.8507 171.039 33.3387 172.419 34.3146C173.798 35.2905 174.852 36.6178 175.581 38.2965C176.322 39.9751 176.693 41.8619 176.693 43.9569C176.693 46.0649 176.322 47.9583 175.581 49.6369C174.839 51.3155 173.772 52.6493 172.38 53.6383C170.987 54.6142 169.309 55.1022 167.344 55.1022ZM157.858 63.8856V33.4363H160.434V49.3051H160.746V63.8856H157.858ZM167.051 52.4281C168.521 52.4281 169.745 52.0572 170.72 51.3155C171.696 50.5738 172.425 49.5653 172.907 48.2901C173.401 47.0019 173.648 45.5575 173.648 43.9569C173.648 42.3694 173.408 40.938 172.926 39.6628C172.445 38.3875 171.709 37.3791 170.72 36.6373C169.745 35.8956 168.502 35.5248 166.992 35.5248C165.522 35.5248 164.299 35.8826 163.323 36.5983C162.36 37.314 161.638 38.3095 161.156 39.5847C160.675 40.8469 160.434 42.3043 160.434 43.9569C160.434 45.5835 160.675 47.0409 161.156 48.3291C161.638 49.6044 162.366 50.6063 163.342 51.335C164.318 52.0637 165.555 52.4281 167.051 52.4281ZM181.37 29.4349V26.2143H184.239V29.4349H181.37ZM181.37 54.5166V33.4363H184.239V54.5166H181.37ZM205.315 54.5166V43.7617C205.315 42.5906 205.205 41.5171 204.984 40.5411C204.762 39.5522 204.405 38.6933 203.91 37.9646C203.429 37.2229 202.798 36.6504 202.017 36.247C201.249 35.8436 200.312 35.6419 199.206 35.6419C198.191 35.6419 197.293 35.8176 196.513 36.1689C195.745 36.5202 195.094 37.0277 194.561 37.6914C194.04 38.342 193.643 39.1358 193.37 40.0727C193.097 41.0096 192.96 42.0766 192.96 43.2738L190.93 42.8248C190.93 40.6647 191.307 38.8495 192.062 37.3791C192.817 35.9086 193.858 34.7961 195.185 34.0413C196.513 33.2866 198.035 32.9093 199.753 32.9093C201.015 32.9093 202.114 33.1044 203.051 33.4948C204.001 33.8852 204.802 34.4122 205.452 35.0758C206.116 35.7395 206.649 36.5007 207.053 37.3595C207.456 38.2054 207.749 39.1097 207.931 40.0727C208.113 41.0226 208.204 41.9725 208.204 42.9224V54.5166H205.315ZM190.071 54.5166V33.4363H192.667V38.6283H192.96V54.5166H190.071ZM220.023 54.5166V30.8207H210.927V26.4095H233.823V30.8207H224.727V54.5166H220.023ZM243.268 54.5166L234.406 26.4095H239.247L246.664 49.9492L254.179 26.4095H259.019L250.158 54.5166H243.268Z" fill="black"/>
</svg>
