<svg width="20" height="21" viewBox="0 0 20 21" fill="none" xmlns="http://www.w3.org/2000/svg">
<g clip-path="url(#clip0_897_21491)">
<path d="M8.26667 16.9667C6.75556 16.9667 5.36667 16.6 4.1 15.8667C2.83333 15.1333 1.83333 14.1333 1.1 12.8667C0.366667 11.6 0 10.2222 0 8.73333C0 7.24444 0.366667 5.86667 1.1 4.6C1.83333 3.33333 2.83333 2.33333 4.1 1.6C5.36667 0.866665 6.74444 0.499998 8.23333 0.499998C9.72222 0.499998 11.1 0.866665 12.3667 1.6C13.6333 2.33333 14.6333 3.33333 15.3667 4.6C16.1 5.86667 16.4667 7.24444 16.4667 8.73333C16.4667 10.2222 16.1 11.6 15.3667 12.8667C14.6333 14.1333 13.6333 15.1333 12.3667 15.8667C11.1 16.6 9.73333 16.9667 8.26667 16.9667ZM8.26667 2.03333C7.06667 2.03333 5.95556 2.33333 4.93333 2.93333C3.91111 3.53333 3.1 4.34444 2.5 5.36667C1.9 6.38889 1.6 7.51111 1.6 8.73333C1.6 9.95555 1.9 11.0778 2.5 12.1C3.1 13.1222 3.91111 13.9333 4.93333 14.5333C5.95556 15.1333 7.06667 15.4333 8.26667 15.4333C9.46667 15.4333 10.5778 15.1333 11.6 14.5333C12.6222 13.9333 13.4333 13.1222 14.0333 12.1C14.6333 11.0778 14.9333 9.95555 14.9333 8.73333C14.9333 7.51111 14.6333 6.38889 14.0333 5.36667C13.4333 4.34444 12.6222 3.53333 11.6 2.93333C10.5778 2.33333 9.46667 2.03333 8.26667 2.03333ZM19.7333 20.3C19.9111 20.1222 20 19.9222 20 19.7C20 19.4778 19.9111 19.3 19.7333 19.1667L16.2667 15.7C16.1333 15.5222 15.9556 15.4333 15.7333 15.4333C15.5111 15.4333 15.3222 15.5111 15.1667 15.6667C15.0111 15.8222 14.9333 16.0111 14.9333 16.2333C14.9333 16.4556 15 16.6333 15.1333 16.7667L18.6667 20.3C18.8 20.4333 18.9778 20.5 19.2 20.5C19.4222 20.5 19.6 20.4333 19.7333 20.3Z" fill="#1E1E1E"/>
</g>
<defs>
<clipPath id="clip0_897_21491">
<rect width="20" height="20" fill="white" transform="matrix(1 0 0 -1 0 20.5)"/>
</clipPath>
</defs>
</svg>
