<svg width="14" height="17" viewBox="0 0 14 17" fill="none" xmlns="http://www.w3.org/2000/svg">
<path d="M12.5508 5.90625C12.5508 6.04297 12.5508 6.15234 12.5508 6.28906C12.5508 10.0898 9.67969 14.4375 4.40234 14.4375C2.76172 14.4375 1.25781 13.9727 0 13.1523C0.21875 13.1797 0.4375 13.207 0.683594 13.207C2.02344 13.207 3.25391 12.7422 4.23828 11.9766C2.98047 11.9492 1.91406 11.1289 1.55859 9.98047C1.75 10.0078 1.91406 10.0352 2.10547 10.0352C2.35156 10.0352 2.625 9.98047 2.84375 9.92578C1.53125 9.65234 0.546875 8.50391 0.546875 7.10938V7.08203C0.929688 7.30078 1.39453 7.41016 1.85938 7.4375C1.06641 6.91797 0.574219 6.04297 0.574219 5.05859C0.574219 4.51172 0.710938 4.01953 0.957031 3.60938C2.37891 5.33203 4.51172 6.48047 6.89062 6.61719C6.83594 6.39844 6.80859 6.17969 6.80859 5.96094C6.80859 4.375 8.09375 3.08984 9.67969 3.08984C10.5 3.08984 11.2383 3.41797 11.7852 3.99219C12.4141 3.85547 13.043 3.60938 13.5898 3.28125C13.3711 3.96484 12.9336 4.51172 12.332 4.86719C12.9062 4.8125 13.4805 4.64844 13.9727 4.42969C13.5898 5.00391 13.0977 5.49609 12.5508 5.90625Z" fill="#1A1A1A"/>
</svg>
